# Blender v2.82 (sub 7) OBJ File: ''
# www.blender.org
mtllib glass_long_low_res.mtl
o Glass_Long
v -6.410809 -22.363079 6.444290
v -6.295944 -18.699535 6.554615
v -8.970821 -22.363079 2.994987
v -8.970818 -18.699535 2.994995
v -2.631229 -22.363079 9.084274
v -2.631214 -18.699535 9.084274
v -2.602180 -22.363079 2.616772
v -6.295944 -13.465993 6.554615
v -6.295944 -8.232450 6.554615
v -8.970818 -13.465993 2.994995
v -8.970818 -8.232450 2.994995
v -2.631214 -13.465993 9.084274
v -2.631214 -8.232450 9.084274
v -6.295944 -2.998907 6.554615
v -6.295944 2.234636 6.554615
v -8.970818 -2.998907 2.994995
v -8.970818 2.234636 2.994995
v -2.631214 -2.998907 9.084274
v -2.631214 2.234636 9.084274
v -6.295944 7.468178 6.554615
v -6.295944 12.701721 6.554615
v -8.970818 7.468178 2.994995
v -8.970818 12.701721 2.994995
v -2.631214 7.468178 9.084274
v -2.631214 12.701721 9.084274
v -6.295944 17.935265 6.554615
v -6.295944 23.168808 6.554615
v -8.970818 17.935265 2.994995
v -8.970818 23.168808 2.994995
v -2.631214 17.935265 9.084274
v -2.631214 23.168808 9.084274
v -6.295944 28.402351 6.554615
v -6.295944 33.635895 6.554615
v -8.970818 28.402351 2.994995
v -8.970818 33.635895 2.994995
v -2.631214 28.402351 9.084274
v -2.631214 33.635895 9.084274
v -6.295944 38.869438 6.554615
v -6.470299 44.166763 6.490059
v -8.970818 38.869438 2.994995
v -9.028950 44.274673 3.265331
v -2.631214 38.869438 9.084274
v -3.120464 44.271927 9.084721
v -5.883663 47.589775 5.897560
v -8.009678 49.547852 2.373455
v -2.373787 49.547882 8.009521
v -3.982716 52.074005 3.982681
v -2.029263 53.207085 1.305733
v -8.970818 -22.363079 -2.994915
v -8.970818 -18.699535 -2.994915
v -6.410770 -22.363079 -6.444244
v -6.295944 -18.699535 -6.554543
v -2.602180 -22.363079 -2.616772
v -2.631397 -22.363079 -9.084068
v -2.631393 -18.699535 -9.084072
v -8.970818 -13.465993 -2.994915
v -8.970818 -8.232450 -2.994915
v -6.295944 -13.465993 -6.554543
v -6.295944 -8.232450 -6.554543
v -2.631393 -13.465993 -9.084072
v -2.631393 -8.232450 -9.084072
v -8.970818 -2.998907 -2.994915
v -8.970818 2.234636 -2.994915
v -6.295944 -2.998907 -6.554543
v -6.295944 2.234636 -6.554543
v -2.631393 -2.998907 -9.084072
v -2.631393 2.234636 -9.084072
v -8.970818 7.468178 -2.994915
v -8.970818 12.701721 -2.994915
v -6.295944 7.468178 -6.554543
v -6.295944 12.701721 -6.554543
v -2.631393 7.468178 -9.084072
v -2.631393 12.701721 -9.084072
v -8.970818 17.935265 -2.994915
v -8.970818 23.168808 -2.994915
v -6.295944 17.935265 -6.554543
v -6.295944 23.168808 -6.554543
v -2.631393 17.935265 -9.084072
v -2.631393 23.168808 -9.084072
v -8.970818 28.402351 -2.994915
v -8.970818 33.635895 -2.994915
v -6.295944 28.402351 -6.554543
v -6.295944 33.635895 -6.554543
v -2.631393 28.402351 -9.084072
v -2.631393 33.635895 -9.084072
v -8.970818 38.869438 -2.994915
v -9.028961 44.274666 -3.265244
v -6.295944 38.869438 -6.554543
v -6.470261 44.166763 -6.490017
v -2.631393 38.869438 -9.084072
v -3.120560 44.271927 -9.084568
v -8.009640 49.547897 -2.373394
v -5.883633 47.589737 -5.897530
v -3.982689 52.074028 -3.982590
v -1.466511 53.599983 -1.466393
v -2.373810 49.547928 -8.009407
v 3.353664 -22.363079 8.842857
v 3.353653 -18.699535 8.842865
v 2.631363 -22.363079 2.616772
v 6.473133 -22.363079 6.399063
v 6.802967 -18.699535 6.026749
v 9.182766 -22.363079 2.262966
v 9.182755 -18.699535 2.262981
v 3.353653 -13.465993 8.842865
v 3.353653 -8.232450 8.842865
v 6.802967 -13.465993 6.026749
v 6.802967 -8.232450 6.026749
v 9.182755 -13.465993 2.262981
v 9.182755 -8.232450 2.262981
v 3.353653 -2.998907 8.842865
v 3.353653 2.234636 8.842865
v 6.802967 -2.998907 6.026749
v 6.802967 2.234636 6.026749
v 9.182755 -2.998907 2.262981
v 9.182755 2.234636 2.262981
v 3.353653 7.468178 8.842865
v 3.353653 12.701721 8.842865
v 6.802967 7.468178 6.026749
v 6.802967 12.701721 6.026749
v 9.182755 7.468178 2.262981
v 9.182755 12.701721 2.262981
v 3.353653 17.935265 8.842865
v 3.353653 23.168808 8.842865
v 6.802967 17.935265 6.026749
v 6.802967 23.168808 6.026749
v 9.182755 17.935265 2.262981
v 9.182755 23.168808 2.262981
v 3.353653 28.402351 8.842865
v 3.353653 33.635895 8.842865
v 6.802967 28.402351 6.026749
v 6.802967 33.635895 6.026749
v 9.182755 28.402351 2.262981
v 9.182755 33.635895 2.262981
v 3.353653 38.869438 8.842865
v 3.409645 44.271957 8.974880
v 6.802967 38.869438 6.026749
v 6.501652 44.166611 6.468231
v 9.182755 38.869438 2.262981
v 9.214870 44.267067 2.882599
v 2.373474 49.547928 8.009480
v 4.037724 52.141907 3.870770
v 1.978752 53.118202 1.279362
v 5.900791 47.576950 5.886917
v 8.043598 49.563080 2.328239
v 2.631363 -22.363079 -2.616772
v 3.353428 -22.363079 -8.842983
v 3.353401 -18.699535 -8.842999
v 8.763721 -22.363079 -2.925617
v 8.763733 -18.699535 -2.925594
v 6.473095 -22.363079 -6.399017
v 6.803020 -18.699535 -6.026608
v 3.353401 -13.465993 -8.842999
v 3.353401 -8.232450 -8.842999
v 8.763733 -13.465993 -2.925594
v 8.763733 -8.232450 -2.925594
v 6.803020 -13.465993 -6.026608
v 6.803020 -8.232450 -6.026608
v 3.353401 -2.998907 -8.842999
v 3.353401 2.234636 -8.842999
v 8.763733 -2.998907 -2.925594
v 8.763733 2.234636 -2.925594
v 6.803020 -2.998907 -6.026608
v 6.803020 2.234636 -6.026608
v 3.353401 7.468178 -8.842999
v 3.353401 12.701721 -8.842999
v 8.763733 7.468178 -2.925594
v 8.763733 12.701721 -2.925594
v 6.803020 7.468178 -6.026608
v 6.803020 12.701721 -6.026608
v 3.353401 17.935265 -8.842999
v 3.353401 23.168808 -8.842999
v 8.763733 17.935265 -2.925594
v 8.763733 23.168808 -2.925594
v 6.803020 17.935265 -6.026608
v 6.803020 23.168808 -6.026608
v 3.353401 28.402351 -8.842999
v 3.353401 33.635895 -8.842999
v 8.763733 28.402351 -2.925594
v 8.763733 33.635895 -2.925594
v 6.803020 28.402351 -6.026608
v 6.803020 33.635895 -6.026608
v 3.353401 38.869438 -8.842999
v 3.409565 44.271965 -8.974876
v 8.763733 38.869438 -2.925594
v 8.836975 44.275444 -3.394325
v 6.803020 38.869438 -6.026608
v 6.501621 44.166611 -6.468189
v 3.933834 52.013748 -4.081959
v 1.701149 53.438545 -1.732578
v 2.373478 49.547913 -8.009407
v 7.858818 49.555763 -2.531700
v 5.900761 47.576920 -5.886887
vn -0.8012 0.0035 0.5984
vn -0.5704 -0.0034 0.8214
vn 0.0000 -1.0000 0.0000
vn -0.7994 0.0000 0.6007
vn -0.5681 0.0000 0.8230
vn -0.7917 -0.0289 0.6103
vn -0.5893 -0.0317 0.8073
vn -0.6059 0.5156 0.6059
vn -0.7604 0.2432 0.6023
vn -0.5972 0.2384 0.7659
vn -0.8012 0.0035 -0.5984
vn -0.5704 -0.0034 -0.8214
vn -0.7994 0.0000 -0.6007
vn -0.5681 0.0000 -0.8230
vn -0.7917 -0.0289 -0.6103
vn -0.5893 -0.0317 -0.8073
vn -0.6059 0.5156 -0.6059
vn -0.7604 0.2432 -0.6023
vn -0.5972 0.2384 -0.7659
vn 0.8406 -0.0103 0.5416
vn 0.6250 0.0115 0.7805
vn 0.8452 0.0000 0.5344
vn 0.6324 0.0000 0.7746
vn 0.8216 -0.0358 0.5689
vn 0.6307 -0.0271 0.7756
vn 0.6060 0.5151 0.6062
vn 0.7709 0.2342 0.5924
vn 0.6063 0.2488 0.7553
vn 0.8397 -0.0102 -0.5430
vn 0.6250 0.0115 -0.7805
vn 0.8452 0.0000 -0.5344
vn 0.6324 0.0000 -0.7746
vn 0.8207 -0.0310 -0.5705
vn 0.6307 -0.0271 -0.7756
vn 0.6053 0.5152 -0.6068
vn 0.7702 0.2382 -0.5917
vn 0.6063 0.2488 -0.7553
vn 0.0403 -0.0000 0.9992
vn 0.0281 -0.0111 0.9995
vn 0.0059 0.9284 0.3716
vn 0.0001 0.8472 0.5312
vn 0.0096 0.1901 0.9817
vn 0.0402 -0.0000 -0.9992
vn 0.0280 -0.0111 -0.9995
vn 0.0000 0.8550 -0.5185
vn -0.0001 0.8470 -0.5316
vn 0.0095 0.1901 -0.9817
vn -1.0000 0.0000 -0.0000
vn 0.9968 0.0000 -0.0805
vn -0.9999 -0.0108 0.0000
vn -0.5111 0.8595 0.0047
vn -0.5314 0.8471 0.0000
vn -0.9818 0.1898 -0.0000
vn 0.9976 -0.0088 -0.0693
vn 0.4883 0.8727 -0.0017
vn 0.5360 0.8440 -0.0210
vn 0.9785 0.2003 -0.0494
vn 0.0397 0.9915 0.1242
usemtl None
s off
f 1//1 2//1 4//1 3//1
f 1//2 5//2 6//2 2//2
f 1//3 3//3 7//3 5//3
f 8//4 9//4 11//4 10//4
f 8//5 12//5 13//5 9//5
f 2//4 8//4 10//4 4//4
f 2//5 6//5 12//5 8//5
f 14//4 15//4 17//4 16//4
f 14//5 18//5 19//5 15//5
f 20//4 21//4 23//4 22//4
f 20//5 24//5 25//5 21//5
f 15//4 20//4 22//4 17//4
f 15//5 19//5 24//5 20//5
f 9//4 14//4 16//4 11//4
f 9//5 13//5 18//5 14//5
f 26//4 27//4 29//4 28//4
f 26//5 30//5 31//5 27//5
f 32//4 33//4 35//4 34//4
f 32//5 36//5 37//5 33//5
f 27//4 32//4 34//4 29//4
f 27//5 31//5 36//5 32//5
f 38//6 39//6 41//6 40//6
f 38//7 42//7 43//7 39//7
f 46//8 47//8 45//8 44//8
f 39//9 44//9 45//9 41//9
f 39//10 43//10 46//10 44//10
f 33//4 38//4 40//4 35//4
f 33//5 37//5 42//5 38//5
f 49//11 50//11 52//11 51//11
f 52//12 55//12 54//12 51//12
f 49//3 51//3 54//3 53//3
f 56//13 57//13 59//13 58//13
f 59//14 61//14 60//14 58//14
f 50//13 56//13 58//13 52//13
f 58//14 60//14 55//14 52//14
f 62//13 63//13 65//13 64//13
f 65//14 67//14 66//14 64//14
f 68//13 69//13 71//13 70//13
f 71//14 73//14 72//14 70//14
f 63//13 68//13 70//13 65//13
f 70//14 72//14 67//14 65//14
f 57//13 62//13 64//13 59//13
f 64//14 66//14 61//14 59//14
f 74//13 75//13 77//13 76//13
f 77//14 79//14 78//14 76//14
f 80//13 81//13 83//13 82//13
f 83//14 85//14 84//14 82//14
f 75//13 80//13 82//13 77//13
f 82//14 84//14 79//14 77//14
f 86//15 87//15 89//15 88//15
f 89//16 91//16 90//16 88//16
f 94//17 96//17 93//17 92//17
f 87//18 92//18 93//18 89//18
f 93//19 96//19 91//19 89//19
f 81//13 86//13 88//13 83//13
f 88//14 90//14 85//14 83//14
f 102//20 103//20 101//20 100//20
f 97//21 100//21 101//21 98//21
f 97//3 99//3 102//3 100//3
f 108//22 109//22 107//22 106//22
f 104//23 106//23 107//23 105//23
f 103//22 108//22 106//22 101//22
f 98//23 101//23 106//23 104//23
f 114//22 115//22 113//22 112//22
f 110//23 112//23 113//23 111//23
f 120//22 121//22 119//22 118//22
f 116//23 118//23 119//23 117//23
f 115//22 120//22 118//22 113//22
f 111//23 113//23 118//23 116//23
f 109//22 114//22 112//22 107//22
f 105//23 107//23 112//23 110//23
f 126//22 127//22 125//22 124//22
f 122//23 124//23 125//23 123//23
f 132//22 133//22 131//22 130//22
f 128//23 130//23 131//23 129//23
f 127//22 132//22 130//22 125//22
f 123//23 125//23 130//23 128//23
f 138//24 139//24 137//24 136//24
f 134//25 136//25 137//25 135//25
f 143//26 144//26 141//26 140//26
f 139//27 144//27 143//27 137//27
f 135//28 137//28 143//28 140//28
f 133//22 138//22 136//22 131//22
f 129//23 131//23 136//23 134//23
f 150//29 151//29 149//29 148//29
f 147//30 151//30 150//30 146//30
f 145//3 146//3 150//3 148//3
f 156//31 157//31 155//31 154//31
f 153//32 157//32 156//32 152//32
f 151//31 156//31 154//31 149//31
f 152//32 156//32 151//32 147//32
f 162//31 163//31 161//31 160//31
f 159//32 163//32 162//32 158//32
f 168//31 169//31 167//31 166//31
f 165//32 169//32 168//32 164//32
f 163//31 168//31 166//31 161//31
f 164//32 168//32 163//32 159//32
f 157//31 162//31 160//31 155//31
f 158//32 162//32 157//32 153//32
f 174//31 175//31 173//31 172//31
f 171//32 175//32 174//32 170//32
f 180//31 181//31 179//31 178//31
f 177//32 181//32 180//32 176//32
f 175//31 180//31 178//31 173//31
f 176//32 180//32 175//32 171//32
f 186//33 187//33 185//33 184//33
f 183//34 187//34 186//34 182//34
f 191//35 192//35 190//35 188//35
f 187//36 192//36 191//36 185//36
f 190//37 192//37 187//37 183//37
f 181//31 186//31 184//31 179//31
f 182//32 186//32 181//32 177//32
f 5//38 97//38 98//38 6//38
f 5//3 7//3 99//3 97//3
f 12//38 104//38 105//38 13//38
f 6//38 98//38 104//38 12//38
f 18//38 110//38 111//38 19//38
f 24//38 116//38 117//38 25//38
f 19//38 111//38 116//38 24//38
f 13//38 105//38 110//38 18//38
f 30//38 122//38 123//38 31//38
f 36//38 128//38 129//38 37//38
f 31//38 123//38 128//38 36//38
f 42//39 134//39 135//39 43//39
f 47//40 141//40 142//40 48//40
f 140//41 141//41 47//41 46//41
f 43//42 135//42 140//42 46//42
f 37//38 129//38 134//38 42//38
f 55//43 147//43 146//43 54//43
f 53//3 54//3 146//3 145//3
f 61//43 153//43 152//43 60//43
f 60//43 152//43 147//43 55//43
f 67//43 159//43 158//43 66//43
f 73//43 165//43 164//43 72//43
f 72//43 164//43 159//43 67//43
f 66//43 158//43 153//43 61//43
f 79//43 171//43 170//43 78//43
f 85//43 177//43 176//43 84//43
f 84//43 176//43 171//43 79//43
f 91//44 183//44 182//44 90//44
f 95//45 189//45 188//45 94//45
f 188//46 190//46 96//46 94//46
f 96//47 190//47 183//47 91//47
f 90//43 182//43 177//43 85//43
f 3//48 4//48 50//48 49//48
f 3//3 49//3 53//3 7//3
f 10//48 11//48 57//48 56//48
f 4//48 10//48 56//48 50//48
f 16//48 17//48 63//48 62//48
f 22//48 23//48 69//48 68//48
f 17//48 22//48 68//48 63//48
f 11//48 16//48 62//48 57//48
f 148//49 149//49 103//49 102//49
f 99//3 145//3 148//3 102//3
f 154//49 155//49 109//49 108//49
f 149//49 154//49 108//49 103//49
f 160//49 161//49 115//49 114//49
f 166//49 167//49 121//49 120//49
f 161//49 166//49 120//49 115//49
f 155//49 160//49 114//49 109//49
f 28//48 29//48 75//48 74//48
f 34//48 35//48 81//48 80//48
f 29//48 34//48 80//48 75//48
f 40//50 41//50 87//50 86//50
f 47//51 48//51 95//51 94//51
f 47//52 94//52 92//52 45//52
f 41//53 45//53 92//53 87//53
f 35//48 40//48 86//48 81//48
f 172//49 173//49 127//49 126//49
f 178//49 179//49 133//49 132//49
f 173//49 178//49 132//49 127//49
f 184//54 185//54 139//54 138//54
f 188//55 189//55 142//55 141//55
f 144//56 191//56 188//56 141//56
f 185//57 191//57 144//57 139//57
f 179//49 184//49 138//49 133//49
f 21//4 26//4 28//4 23//4
f 21//5 25//5 30//5 26//5
f 69//13 74//13 76//13 71//13
f 76//14 78//14 73//14 71//14
f 121//22 126//22 124//22 119//22
f 117//23 119//23 124//23 122//23
f 169//31 174//31 172//31 167//31
f 170//32 174//32 169//32 165//32
f 23//48 28//48 74//48 69//48
f 167//49 172//49 126//49 121//49
f 25//38 117//38 122//38 30//38
f 78//43 170//43 165//43 73//43
f 7//3 53//3 145//3 99//3
f 142//58 189//58 95//58 48//58
